<svg width="64" height="65" viewBox="0 0 64 65" fill="none" xmlns="http://www.w3.org/2000/svg">
<rect x="1" y="1.17999" width="62" height="62" rx="5" stroke="#1E3A8A" stroke-width="2"/>
<path d="M21.9725 17.33C23.159 17.1605 24.8225 17.5475 26.972 18.779L27.38 19.0205L27.62 19.1705L28.2155 19.046C30.4862 18.6072 32.8159 18.5666 35.1005 18.926L35.7845 19.046L36.3785 19.1705L36.62 19.0205C38.6975 17.7605 40.3505 17.2655 41.603 17.2985L41.849 17.3105L42.0695 17.336L42.1835 17.357L42.2585 17.3735L42.4745 17.444C42.8282 17.5902 43.1126 17.866 43.2695 18.215C43.8833 19.5825 44.0901 21.098 43.865 22.58L43.7945 22.9805L43.7255 23.2745L43.91 23.519C44.771 24.7115 45.305 26.111 45.455 27.5795L45.4895 28.022L45.5 28.43C45.5 34.2125 43.0115 37.2545 38.534 38.45L38.1665 38.5415L37.9685 38.585L37.9895 38.8265L38.0015 39.062L38.0075 39.6095L38.0045 39.929L38 45.68C38 46.0474 37.8651 46.402 37.6209 46.6766C37.3768 46.9511 37.0404 47.1265 36.6755 47.1695L36.5 47.18H27.5C27.1326 47.1799 26.778 47.0451 26.5035 46.8009C26.2289 46.5568 26.0535 46.2204 26.0105 45.8555L26 45.68V44.579C23.273 44.969 21.455 43.943 19.835 41.762L19.0325 40.613C18.6125 40.019 18.35 39.7445 18.149 39.647L18.077 39.6185C17.7056 39.4978 17.396 39.2371 17.2138 38.8916C17.0316 38.5462 16.9914 38.1434 17.1015 37.7688C17.2117 37.3941 17.4636 37.0772 17.8037 36.8854C18.1439 36.6936 18.5454 36.6419 18.923 36.7415C19.886 37.0235 20.534 37.5935 21.278 38.6L22.085 39.7535C23.225 41.372 24.125 41.942 25.9985 41.54L26 40.523L25.973 40.271C25.9287 39.8605 25.9182 39.4472 25.9415 39.035L25.967 38.7575L25.9955 38.5775L25.8335 38.5415C21.3695 37.4765 18.779 34.682 18.521 29.333L18.506 28.868L18.5 28.43C18.5018 26.8049 18.9749 25.2151 19.862 23.8535L20.09 23.5205L20.273 23.276L20.2055 22.982C19.9351 21.6643 20.01 20.2991 20.423 19.019L20.573 18.596L20.732 18.2165C20.8886 17.8678 21.1724 17.592 21.5255 17.4455L21.7415 17.375L21.9725 17.33Z" fill="#E2E8F0"/>
</svg>
