<svg width="64" height="65" viewBox="0 0 64 65" fill="none" xmlns="http://www.w3.org/2000/svg">
<rect x="1" y="1.17999" width="62" height="62" rx="5" stroke="#1E3A8A" stroke-width="2"/>
<path d="M32 27.4937C29.4195 27.4937 27.3137 29.5995 27.3137 32.18C27.3137 34.7605 29.4195 36.8663 32 36.8663C34.5805 36.8663 36.6863 34.7605 36.6863 32.18C36.6863 29.5995 34.5805 27.4937 32 27.4937ZM46.0555 32.18C46.0555 30.2394 46.073 28.3163 45.964 26.3792C45.8551 24.1292 45.3418 22.1324 43.6965 20.487C42.0476 18.8382 40.0543 18.3285 37.8043 18.2195C35.8637 18.1105 33.9406 18.1281 32.0035 18.1281C30.0629 18.1281 28.1398 18.1105 26.2027 18.2195C23.9527 18.3285 21.9558 18.8417 20.3105 20.487C18.6617 22.1359 18.1519 24.1292 18.043 26.3792C17.934 28.3199 17.9515 30.2429 17.9515 32.18C17.9515 34.1171 17.934 36.0437 18.043 37.9808C18.1519 40.2308 18.6652 42.2277 20.3105 43.873C21.9594 45.5218 23.9527 46.0316 26.2027 46.1406C28.1433 46.2495 30.0664 46.232 32.0035 46.232C33.9441 46.232 35.8672 46.2495 37.8043 46.1406C40.0543 46.0316 42.0512 45.5183 43.6965 43.873C45.3453 42.2242 45.8551 40.2308 45.964 37.9808C46.0765 36.0437 46.0555 34.1206 46.0555 32.18ZM32 39.3906C28.0097 39.3906 24.7894 36.1702 24.7894 32.18C24.7894 28.1898 28.0097 24.9695 32 24.9695C35.9902 24.9695 39.2105 28.1898 39.2105 32.18C39.2105 36.1702 35.9902 39.3906 32 39.3906ZM39.5058 26.3581C38.5742 26.3581 37.8219 25.6058 37.8219 24.6742C37.8219 23.7425 38.5742 22.9902 39.5058 22.9902C40.4375 22.9902 41.1898 23.7425 41.1898 24.6742C41.1901 24.8954 41.1467 25.1145 41.0622 25.3189C40.9777 25.5234 40.8536 25.7091 40.6972 25.8655C40.5408 26.022 40.355 26.146 40.1506 26.2305C39.9462 26.315 39.7271 26.3584 39.5058 26.3581Z" fill="#E2E8F0"/>
</svg>
