<svg width="61" height="61" viewBox="0 0 61 61" fill="none" xmlns="http://www.w3.org/2000/svg">
<path d="M4.64001 4.55499V57.055H57.14V4.55499H4.64001ZM32.765 45.3362C32.765 50.4468 29.7463 52.9382 25.3763 52.9382C21.4295 52.9382 19.1385 50.8944 17.976 48.4277L21.9931 45.996C22.7677 47.3706 23.356 48.5331 25.047 48.5331C26.4533 48.5331 27.6088 47.8991 27.6088 45.4323V28.93H32.765V45.3362ZM44.4076 52.821C39.8267 52.821 36.8666 50.7538 35.4217 47.8991L39.4447 45.5706C40.4994 47.298 41.8763 48.4487 44.308 48.4487C46.3517 48.4487 47.5388 47.5441 47.5388 46.1343C47.5388 44.4433 46.3166 43.8444 44.0607 42.853L42.8279 42.3234C39.2677 40.8093 36.9076 38.9062 36.9076 34.8878C36.9076 31.1882 39.726 28.4859 44.131 28.4859C47.2681 28.4859 49.5217 29.4609 51.1447 32.3155L47.2963 34.7894C46.4502 33.2741 45.5385 32.68 44.1252 32.68C42.6802 32.68 41.7638 33.5964 41.7638 34.7894C41.7638 36.2694 42.6802 36.8683 44.7943 37.7847L46.0271 38.3132C50.2213 40.1109 52.5826 41.946 52.5826 46.0663C52.5838 50.5077 49.0951 52.821 44.4076 52.821Z" fill="#E2E8F0"/>
</svg>
