<svg width="64" height="65" viewBox="0 0 64 65" fill="none" xmlns="http://www.w3.org/2000/svg">
<rect x="1" y="1.17999" width="62" height="62" rx="5" stroke="#1E3A8A" stroke-width="2"/>
<path d="M23.3009 45.68H16.7703V24.6496H23.3009V45.68ZM20.0321 21.7808C17.9438 21.7808 16.25 20.0511 16.25 17.9628C16.25 16.9598 16.6485 15.9978 17.3578 15.2885C18.067 14.5792 19.029 14.1807 20.0321 14.1807C21.0352 14.1807 21.9972 14.5792 22.7065 15.2885C23.4157 15.9978 23.8142 16.9598 23.8142 17.9628C23.8142 20.0511 22.1197 21.7808 20.0321 21.7808ZM47.743 45.68H41.2264V35.4425C41.2264 33.0027 41.1772 29.8738 37.831 29.8738C34.4356 29.8738 33.9153 32.5246 33.9153 35.2667V45.68H27.3917V24.6496H33.6552V27.5183H33.7466C34.6184 25.866 36.7482 24.1222 39.9256 24.1222C46.535 24.1222 47.75 28.4746 47.75 34.1277V45.68H47.743Z" fill="#E2E8F0"/>
</svg>
