<svg width="61" height="61" viewBox="0 0 61 61" fill="none" xmlns="http://www.w3.org/2000/svg">
<path d="M44.8411 44.9282L26.3306 20.805H20.6801V40.805H25.6801V28.1705L40.8973 48.002C37.9068 49.7822 34.4128 50.805 30.6801 50.805C19.6344 50.805 10.6801 41.8507 10.6801 30.805C10.6801 19.7593 19.6344 10.805 30.6801 10.805C41.7258 10.805 50.6801 19.7593 50.6801 30.805C50.6801 36.3182 48.4493 41.3105 44.8411 44.9282ZM30.6801 55.805C44.4871 55.805 55.6801 44.612 55.6801 30.805C55.6801 16.9979 44.4871 5.80499 30.6801 5.80499C16.8729 5.80499 5.68005 16.9979 5.68005 30.805C5.68005 44.612 16.8729 55.805 30.6801 55.805ZM35.6801 30.805V20.805H40.6801V30.805H35.6801Z" fill="#E2E8F0"/>
</svg>
