<svg width="61" height="61" viewBox="0 0 61 61" fill="none" xmlns="http://www.w3.org/2000/svg">
<path d="M49.4878 21.5706C48.855 21.3597 48.2222 21.1605 47.5894 20.973C47.6948 20.5394 47.7886 20.1058 47.8823 19.6722C49.3237 12.6878 48.3745 7.07452 45.1753 5.22296C42.0933 3.45343 37.0659 5.29327 31.98 9.72296C31.4761 10.1566 30.9839 10.6136 30.5151 11.0706C30.1987 10.7659 29.8706 10.4612 29.5425 10.1683C24.2104 5.4339 18.8667 3.44171 15.6675 5.30499C12.5972 7.08624 11.6831 12.3714 12.9722 18.9808C13.1011 19.637 13.2417 20.2816 13.4058 20.9378C12.6558 21.1487 11.9175 21.3831 11.2261 21.6292C4.96826 23.7972 0.47998 27.2191 0.47998 30.7581C0.47998 34.4144 5.26123 38.0823 11.7651 40.3089C12.2925 40.4847 12.8198 40.6605 13.3589 40.8128C13.1831 41.5159 13.0308 42.2073 12.8901 42.9222C11.6597 49.4261 12.6206 54.5823 15.6909 56.3519C18.855 58.18 24.1753 56.305 29.355 51.7698C29.7651 51.4066 30.1753 51.0316 30.5854 50.6331C31.1011 51.137 31.6401 51.6175 32.1792 52.0862C37.1948 56.3987 42.1519 58.1448 45.2104 56.3753C48.3745 54.5472 49.4058 49.0042 48.0698 42.2542C47.9644 41.7386 47.8472 41.2112 47.7183 40.6722C48.0933 40.5667 48.4565 40.4495 48.8198 40.3323C55.5815 38.0941 60.48 34.473 60.48 30.7581C60.48 27.2073 55.8628 23.762 49.4878 21.5706ZM33.6323 11.6214C37.9917 7.82452 42.0581 6.33624 43.9097 7.40265C45.8901 8.53937 46.6519 13.1331 45.4097 19.1683C45.3276 19.5667 45.2456 19.9534 45.1401 20.3401C42.5386 19.7542 39.9019 19.3323 37.2534 19.098C35.73 16.9183 34.0659 14.8323 32.2612 12.8753C32.7183 12.4417 33.1636 12.0316 33.6323 11.6214ZM20.0737 36.8401C20.6714 37.8597 21.2808 38.8792 21.9253 39.8753C20.0972 39.6761 18.2808 39.3831 16.4878 38.9964C17.0034 37.3089 17.6479 35.5628 18.3979 33.7816C18.937 34.8128 19.4878 35.8323 20.0737 36.8401ZM16.5229 22.7425C18.2104 22.3675 20.0034 22.0628 21.8667 21.8284C21.2456 22.8011 20.6362 23.7972 20.062 24.805C19.4878 25.8011 18.9253 26.8206 18.3979 27.8519C17.6597 26.1058 17.0386 24.3948 16.5229 22.7425ZM19.7339 30.8167C20.5073 29.1995 21.3511 27.6175 22.2417 26.0589C23.1323 24.5003 24.0933 22.9886 25.1011 21.5003C26.8589 21.3714 28.6519 21.3011 30.48 21.3011C32.3081 21.3011 34.1128 21.3714 35.8589 21.5003C36.855 22.9769 37.8042 24.4886 38.7065 26.0355C39.6089 27.5823 40.4526 29.1644 41.2495 30.7698C40.4644 32.387 39.6206 33.9808 38.7183 35.5511C37.8276 37.1097 36.8784 38.6214 35.8823 40.1214C34.1362 40.2503 32.3198 40.3089 30.48 40.3089C28.6401 40.3089 26.8589 40.2503 25.1362 40.1448C24.1167 38.6566 23.1558 37.1331 22.2534 35.5745C21.3511 34.0159 20.519 32.4339 19.7339 30.8167ZM40.8979 36.8167C41.4956 35.7855 42.0581 34.7425 42.6089 33.6878C43.3589 35.387 44.0151 37.1097 44.5894 38.8792C42.7729 39.2894 40.9331 39.6058 39.0815 39.8167C39.7144 38.8323 40.312 37.8245 40.8979 36.8167ZM42.5854 27.8519C42.0347 26.8206 41.4722 25.7894 40.8862 24.7816C40.312 23.7855 39.7144 22.8011 39.0933 21.8284C40.98 22.0628 42.7847 22.3792 44.4722 22.7659C43.9331 24.5003 43.3003 26.1878 42.5854 27.8519ZM30.5034 14.6683C31.7339 16.0042 32.894 17.4105 33.9722 18.8636C31.6519 18.7581 29.3198 18.7581 26.9995 18.8636C28.1479 17.3519 29.3315 15.9456 30.5034 14.6683ZM16.9097 7.48468C18.8784 6.33624 23.2495 7.97687 27.855 12.055C28.1479 12.3128 28.4409 12.5941 28.7456 12.8753C26.9292 14.8323 25.2534 16.9183 23.7183 19.098C21.0698 19.3323 18.4448 19.7425 15.8433 20.3167C15.6909 19.7191 15.562 19.1097 15.4331 18.5003C14.3315 12.8284 15.0581 8.55109 16.9097 7.48468ZM14.0386 38.3753C13.5464 38.2347 13.0659 38.0823 12.5854 37.9183C10.0894 37.1331 7.25342 35.8909 5.20264 34.262C4.01904 33.4417 3.22217 32.1761 2.99951 30.7581C2.99951 28.6136 6.70264 25.8714 12.0464 24.0081C12.7144 23.7737 13.394 23.5628 14.0737 23.3636C14.8706 25.9066 15.8315 28.4026 16.9448 30.8167C15.8198 33.2659 14.8472 35.7972 14.0386 38.3753ZM27.7026 49.8597C25.769 51.6292 23.5308 53.0355 21.0933 53.9964C19.7925 54.6175 18.2925 54.6761 16.9565 54.1487C15.0933 53.0706 14.3198 48.9339 15.3745 43.3675C15.5034 42.7112 15.644 42.055 15.8081 41.4105C18.4331 41.973 21.0815 42.3597 23.7651 42.5589C25.312 44.7503 27.0112 46.848 28.8276 48.8167C28.4526 49.18 28.0776 49.5316 27.7026 49.8597ZM30.5737 47.012C29.3784 45.723 28.1831 44.2933 27.0229 42.7581C28.1479 42.805 29.3081 42.8284 30.48 42.8284C31.687 42.8284 32.8706 42.805 34.0425 42.7464C32.9644 44.2347 31.8042 45.6526 30.5737 47.012ZM45.8901 50.5276C45.7847 51.9573 45.0815 53.2933 43.9565 54.1956C42.0933 55.2737 38.1206 53.8675 33.8315 50.1878C33.3394 49.7659 32.8472 49.3089 32.3433 48.8401C34.1362 46.8597 35.7886 44.762 37.2886 42.5589C39.9722 42.3362 42.644 41.9261 45.2808 41.3284C45.3979 41.8089 45.5034 42.2894 45.5972 42.7581C46.1714 45.2894 46.2651 47.9261 45.8901 50.5276ZM48.0229 37.93C47.6948 38.0355 47.3667 38.1409 47.0269 38.2347C46.2065 35.68 45.1987 33.1839 44.0386 30.7581C45.1636 28.3675 46.1128 25.9066 46.9097 23.387C47.519 23.5628 48.105 23.7503 48.6675 23.9378C54.1284 25.8128 57.9604 28.6019 57.9604 30.7347C57.9604 33.0316 53.8706 35.9964 48.0229 37.93ZM30.48 36.1722C33.4448 36.1722 35.8472 33.7698 35.8472 30.805C35.8472 27.8401 33.4448 25.4378 30.48 25.4378C27.5151 25.4378 25.1128 27.8401 25.1128 30.805C25.1128 33.7698 27.5151 36.1722 30.48 36.1722Z" fill="#E2E8F0"/>
</svg>
